<svg width="140" height="34" viewBox="0 0 140 34" fill="none" xmlns="http://www.w3.org/2000/svg">
<g clip-path="url(#clip0_3324_18)">
<path d="M36.7864 11.9698H50.9594V14.5668H45.3874V29.1688H42.3214V14.5668H36.7734V11.9688H36.7854L36.7864 11.9698ZM50.3544 16.7148H52.9744V19.1187H53.0234C53.1104 18.7787 53.2704 18.4507 53.5054 18.1357C54.0079 17.4585 54.688 16.9334 55.4704 16.6187C55.8678 16.461 56.2909 16.3782 56.7184 16.3748C57.0384 16.3748 57.2744 16.3877 57.3984 16.3997C57.5214 16.4117 57.6444 16.4358 57.7804 16.4478V19.0938C57.5798 19.0586 57.378 19.0303 57.1754 19.0088C56.9743 18.985 56.772 18.973 56.5694 18.9727C56.0994 18.9727 55.6554 19.0698 55.2354 19.2528C54.8154 19.4338 54.4564 19.7128 54.1484 20.0658C53.8198 20.4604 53.5681 20.9133 53.4064 21.4007C53.2214 21.9347 53.1344 22.5407 53.1344 23.2337V29.1567H50.3424V16.7148H50.3544ZM70.6194 29.1698H67.8764V27.4347H67.8264C67.4804 28.0647 66.9744 28.5628 66.2944 28.9398C65.6144 29.3158 64.9224 29.5098 64.2184 29.5098C62.5504 29.5098 61.3384 29.1098 60.5984 28.2968C59.8564 27.4828 59.4854 26.2568 59.4854 24.6178V16.7157H62.2784V24.3507C62.2784 25.4438 62.4884 26.2208 62.9214 26.6698C63.3414 27.1188 63.9464 27.3498 64.7124 27.3498C65.3054 27.3498 65.7874 27.2648 66.1824 27.0818C66.5784 26.9008 66.8994 26.6697 67.1344 26.3657C67.3814 26.0747 67.5544 25.7108 67.6664 25.2978C67.7764 24.8848 67.8264 24.4368 67.8264 23.9508V16.7278H70.6194V29.1698ZM75.3764 25.1768C75.4634 25.9768 75.7714 26.5368 76.3034 26.8638C76.8464 27.1798 77.4894 27.3498 78.2434 27.3498C78.5034 27.3498 78.7994 27.3247 79.1334 27.2887C79.4664 27.2527 79.7874 27.1678 80.0724 27.0588C80.3684 26.9488 80.6024 26.7788 80.8004 26.5608C80.9864 26.3418 81.0724 26.0628 81.0604 25.7108C81.0588 25.5474 81.0228 25.3862 80.9548 25.2377C80.8867 25.0891 80.7881 24.9566 80.6654 24.8488C80.4174 24.6188 80.1094 24.4487 79.7254 24.3027C79.2977 24.1545 78.8599 24.0369 78.4154 23.9508C77.9214 23.8538 77.4274 23.7448 76.9214 23.6348C76.4117 23.5245 75.9083 23.3866 75.4134 23.2218C74.9493 23.073 74.5116 22.852 74.1164 22.5667C73.7314 22.298 73.4173 21.9397 73.2014 21.5228C72.9674 21.0978 72.8554 20.5757 72.8554 19.9447C72.8554 19.2647 73.0284 18.7068 73.3624 18.2448C73.6994 17.7866 74.1343 17.4095 74.6354 17.1408C75.1741 16.856 75.7531 16.6554 76.3524 16.5457C76.9824 16.4367 77.5884 16.3757 78.1564 16.3757C78.8114 16.3757 79.4414 16.4488 80.0354 16.5828C80.6106 16.7062 81.1587 16.9325 81.6534 17.2507C82.1354 17.5537 82.5304 17.9548 82.8524 18.4408C83.1734 18.9258 83.3714 19.5208 83.4574 20.2118H80.5414C80.4054 19.5568 80.1084 19.1078 79.6274 18.8888C79.1454 18.6588 78.5894 18.5487 77.9714 18.5487C77.7734 18.5487 77.5384 18.5607 77.2674 18.5977C77.0063 18.6325 76.7493 18.6935 76.5004 18.7798C76.2729 18.8635 76.0665 18.9959 75.8954 19.1677C75.8124 19.2574 75.7478 19.3625 75.7055 19.4772C75.6631 19.5918 75.6437 19.7136 75.6484 19.8358C75.6484 20.1758 75.7714 20.4428 76.0064 20.6488C76.2414 20.8558 76.5504 21.0247 76.9334 21.1707C77.3164 21.3047 77.7494 21.4258 78.2434 21.5228C78.7374 21.6198 79.2434 21.7298 79.7634 21.8388C80.2694 21.9478 80.7634 22.0937 81.2584 22.2507C81.7524 22.4087 82.1844 22.6277 82.5684 22.9067C82.9514 23.1867 83.2604 23.5257 83.4944 23.9387C83.7294 24.3507 83.8534 24.8727 83.8534 25.4797C83.8534 26.2197 83.6804 26.8397 83.3334 27.3617C82.9884 27.8717 82.5434 28.2957 81.9994 28.6117C81.43 28.9398 80.8129 29.1773 80.1704 29.3158C79.5168 29.4595 78.8497 29.5326 78.1804 29.5338C77.431 29.5422 76.6836 29.4524 75.9574 29.2668C75.2774 29.0848 74.6844 28.8177 74.1904 28.4667C73.7022 28.112 73.3008 27.6511 73.0164 27.1187C72.7324 26.5847 72.5834 25.9418 72.5594 25.2008H75.3764V25.1768ZM84.5944 16.7167H86.7074V12.9768H89.5004V16.7167H92.0204V18.7668H89.5014V25.4198C89.5014 25.7098 89.5134 25.9538 89.5384 26.1718C89.5624 26.3788 89.6244 26.5607 89.7114 26.7057C89.806 26.8581 89.9495 26.9738 90.1184 27.0338C90.3044 27.1068 90.5384 27.1437 90.8604 27.1437C91.0574 27.1437 91.2554 27.1438 91.4534 27.1308C91.6514 27.1188 91.8484 27.0947 92.0464 27.0457V29.1698C91.7374 29.2068 91.4284 29.2307 91.1444 29.2677C90.845 29.3022 90.5438 29.3182 90.2424 29.3158C89.5014 29.3158 88.9084 29.2428 88.4624 29.1098C88.0184 28.9758 87.6594 28.7698 87.4124 28.5028C87.1524 28.2358 86.9924 27.9078 86.8934 27.5068C86.7972 27.0558 86.7436 26.5968 86.7334 26.1357V18.7898H84.6204V16.7138H84.5954L84.5944 16.7167ZM93.9974 16.7167H96.6424V18.4028H96.6924C97.0864 17.6748 97.6304 17.1648 98.3344 16.8498C99.054 16.5298 99.834 16.3682 100.621 16.3757C101.621 16.3757 102.486 16.5458 103.228 16.8978C103.969 17.2378 104.587 17.7118 105.081 18.3178C105.575 18.9258 105.934 19.6287 106.181 20.4307C106.433 21.265 106.558 22.1324 106.552 23.0037C106.552 23.8417 106.441 24.6537 106.218 25.4317C106.014 26.1825 105.675 26.89 105.217 27.5198C104.768 28.1262 104.185 28.6204 103.512 28.9638C102.82 29.3278 102.017 29.5098 101.078 29.5098C100.668 29.5096 100.258 29.4732 99.8544 29.4007C99.4515 29.3278 99.058 29.2097 98.6814 29.0487C98.3074 28.8929 97.9575 28.6845 97.6424 28.4298C97.3315 28.1814 97.0606 27.8866 96.8394 27.5557H96.7894V33.7708H93.9974V16.7148V16.7167ZM103.759 22.9548C103.759 22.3968 103.685 21.8507 103.537 21.3167C103.4 20.8113 103.174 20.3345 102.869 19.9088C102.58 19.5041 102.205 19.1684 101.77 18.9258C101.304 18.6733 100.781 18.5435 100.25 18.5487C99.0764 18.5487 98.1864 18.9487 97.5934 19.7507C97.0004 20.5517 96.7034 21.6208 96.7034 22.9548C96.7034 23.5868 96.7784 24.1687 96.9384 24.7027C97.0984 25.2367 97.3214 25.6988 97.6424 26.0868C97.9524 26.4758 98.3224 26.7787 98.7554 26.9967C99.1874 27.2277 99.6944 27.3368 100.262 27.3368C100.905 27.3368 101.436 27.2037 101.881 26.9487C102.312 26.7008 102.683 26.3611 102.968 25.9538C103.252 25.5408 103.463 25.0798 103.586 24.5578C103.7 24.0313 103.758 23.4933 103.759 22.9548ZM108.689 11.9698H111.482V14.5677H108.689V11.9698ZM108.689 16.7157H111.482V29.1698H108.689V16.7157ZM113.978 11.9698H116.771V29.1698H113.978V11.9698ZM125.334 29.5098C124.32 29.5098 123.418 29.3398 122.628 29.0128C121.871 28.7021 121.186 28.2392 120.614 27.6528C120.059 27.0545 119.634 26.3476 119.365 25.5767C119.071 24.7259 118.925 23.8309 118.933 22.9307C118.933 21.9837 119.081 21.1108 119.365 20.3088C119.634 19.5383 120.059 18.8318 120.614 18.2337C121.157 17.6507 121.837 17.2018 122.628 16.8738C123.418 16.5458 124.32 16.3757 125.334 16.3757C126.347 16.3757 127.249 16.5458 128.04 16.8738C128.798 17.1844 129.483 17.6473 130.054 18.2337C130.61 18.8316 131.035 19.5382 131.302 20.3088C131.586 21.1108 131.734 21.9837 131.734 22.9307C131.734 23.8907 131.586 24.7757 131.302 25.5767C131.035 26.3477 130.61 27.0547 130.054 27.6528C129.51 28.2358 128.831 28.6848 128.04 29.0128C127.249 29.3398 126.347 29.5098 125.334 29.5098ZM125.334 27.3368C125.952 27.3368 126.495 27.2037 126.952 26.9487C127.398 26.7008 127.782 26.3564 128.077 25.9408C128.373 25.5288 128.583 25.0548 128.732 24.5338C128.868 24.0108 128.942 23.4777 128.942 22.9307C128.942 22.3967 128.868 21.8747 128.732 21.3407C128.605 20.8342 128.383 20.3564 128.077 19.9328C127.782 19.5211 127.397 19.181 126.952 18.9377C126.495 18.6827 125.952 18.5487 125.334 18.5487C124.716 18.5487 124.172 18.6827 123.715 18.9377C123.274 19.1847 122.89 19.5241 122.591 19.9328C122.29 20.359 122.068 20.8359 121.936 21.3407C121.8 21.8598 121.729 22.394 121.725 22.9307C121.725 23.4777 121.8 24.0108 121.936 24.5338C122.072 25.0548 122.294 25.5288 122.591 25.9408C122.887 26.3538 123.258 26.6937 123.715 26.9487C124.172 27.2157 124.716 27.3368 125.334 27.3368ZM132.55 16.7167H134.663V12.9768H137.456V16.7167H139.976V18.7668H137.456V25.4198C137.456 25.7098 137.468 25.9538 137.492 26.1718C137.517 26.3788 137.579 26.5607 137.666 26.7057C137.761 26.8583 137.904 26.974 138.073 27.0338C138.259 27.1068 138.493 27.1437 138.815 27.1437C139.012 27.1437 139.21 27.1438 139.408 27.1308C139.606 27.1188 139.803 27.0947 140.001 27.0457V29.1698C139.692 29.2068 139.383 29.2307 139.099 29.2677C138.8 29.3022 138.499 29.3182 138.197 29.3158C137.456 29.3158 136.862 29.2428 136.417 29.1098C135.973 28.9758 135.614 28.7698 135.367 28.5028C135.108 28.2358 134.947 27.9078 134.848 27.5068C134.752 27.0558 134.699 26.5967 134.688 26.1357V18.7898H132.575V16.7138H132.55V16.7167Z" fill="#1C1C1C"/>
<path d="M33.523 11.969H20.722L16.768 0L12.8 11.97L0 11.957L10.367 19.361L6.401 31.317L16.768 23.925L27.123 31.317L23.169 19.361L33.523 11.969Z" fill="#00B67A"/>
<path d="M24.0595 22.0683L23.1695 19.3613L16.7695 23.9253L24.0595 22.0683Z" fill="#126849"/>
</g>
<defs>
<clipPath id="clip0_3324_18">
<rect width="140" height="34" fill="white"/>
</clipPath>
</defs>
</svg>
