<svg width="251" height="46" viewBox="0 0 251 46" fill="none" xmlns="http://www.w3.org/2000/svg">
<g clip-path="url(#clip0_3326_23)">
<path d="M0 46.33H46.3756V0H0V46.33Z" fill="#00B67A"/>
<path d="M39.5323 19.7107L13.2286 38.8L17.0668 27.0021L7.01953 19.7107H19.4385L23.2759 7.91211L27.1133 19.7107H39.5323ZM23.2769 31.5094L30.4605 29.9998L33.3226 38.8L23.2769 31.5094Z" fill="white"/>
<path d="M51.25 46.33H97.6256V0H51.25V46.33Z" fill="#00B67A"/>
<path d="M51.25 46.33H74.4378V0H51.25V46.33Z" fill="#00B67A"/>
<path d="M74.991 31.3299L81.1509 30L84 39L74.3398 31.7972L64.3028 39L68.1984 27.1593L58 19.8415H70.6056L74.4996 8L78.3952 19.8415H91L74.991 31.3299Z" fill="white"/>
<path d="M102.531 46.33H148.907V0H102.531V46.33Z" fill="#00B67A"/>
<path d="M102.531 46.33H125.719V0H102.531V46.33Z" fill="#00B67A"/>
<path d="M142.067 19.7107L115.764 38.8L119.602 27.0021L109.555 19.7107H121.974L125.811 7.91211L129.649 19.7107L142.067 19.7107ZM125.812 31.5094L132.996 29.9998L135.858 38.8L125.812 31.5094Z" fill="white"/>
<path d="M153.816 46.33H200.192V0H153.816V46.33Z" fill="#00B67A"/>
<path d="M153.816 46.33H177.004V0H153.816V46.33Z" fill="#00B67A"/>
<path d="M193.349 19.7107L167.046 38.8L170.883 27.0021L160.836 19.7107H173.255L177.092 7.91211L180.93 19.7107L193.349 19.7107ZM177.093 31.5094L184.277 29.9998L187.139 38.8L177.093 31.5094Z" fill="white"/>
<path d="M205.062 46.33H251.438V0H205.062V46.33Z" fill="#DCDCE6"/>
<path d="M205.062 46.33H228.25V0H205.062V46.33Z" fill="#00B67A"/>
<path d="M244.595 19.7107L218.292 38.8L222.129 27.0021L212.082 19.7107H224.501L228.338 7.91211L232.176 19.7107H244.595ZM228.339 31.5094L235.523 29.9998L238.385 38.8L228.339 31.5094Z" fill="white"/>
</g>
<defs>
<clipPath id="clip0_3326_23">
<rect width="251" height="46" fill="white"/>
</clipPath>
</defs>
</svg>
