<svg id="Layer_1" data-name="Layer 1" xmlns="http://www.w3.org/2000/svg" xmlns:xlink="http://www.w3.org/1999/xlink" viewBox="0 0 879.78 349.18"><defs><style>.cls-1{fill:#e5daf5;}.cls-2{fill:url(#linear-gradient);}.cls-3{fill:#47317c;}.cls-4{fill:#c9b2ed;}.cls-5{fill:#706f6f;}</style><linearGradient id="linear-gradient" x1="-8.44" y1="261.61" x2="158.08" y2="153.47" gradientUnits="userSpaceOnUse"><stop offset="0" stop-color="#c6c6c6"/><stop offset="1" stop-color="#f6f6f6"/></linearGradient></defs><path class="cls-1" d="M143.35,250.77s-48.45-10.5-96.94,7.69c0,0-63.87,26.74-2.51,58.81,0,0-59.24-14.72-33.88-50.35a52.3,52.3,0,0,1,15.12-13.83c13.69-8.55,43.17-22.24,88.29-19.13l31.06,6.79Z"/><path class="cls-2" d="M121.56,97.22s49.31,146.12-94.17,219.56h0a305,305,0,0,0,58.1-66.1l4-6.21,3.85-70.53S78.64,135.24,121.56,97.22Z"/><path class="cls-3" d="M130.14,89.92c-2,2.09-9.44,9.85-11.1,12.18-.87,1.13-1.67,2.3-2.46,3.48s-1.54,2.38-2.25,3.6a86.26,86.26,0,0,0-7.27,15.14,100.67,100.67,0,0,0-6.49,32.3l-.1,8.23.47,8.23,1.49,17.17a256.62,256.62,0,0,1,.78,35.27c-.26,3-.49,6-.81,9L101,243.41a134.5,134.5,0,0,1-4.74,17.47,132.45,132.45,0,0,1-16.19,31.95c-13.3,19.69-30.32,36-48.9,49.82,3.58-4.58,7.27-9,11-13.41l10.53-13.56,5-6.95,2.47-3.46a41.54,41.54,0,0,0,2.36-3.52c2.91-4.84,6.2-9.42,8.71-14.41A146,146,0,0,0,84.25,257a134.22,134.22,0,0,0,5.67-32.3,335.43,335.43,0,0,0-.07-33.7c-.19-5.72-.52-11.43-.6-17.29l.08-9c.24-3,.56-6,.84-9s1-6,1.56-8.9,1.52-5.84,2.33-8.72c1-2.83,2-5.67,3.18-8.43a85.68,85.68,0,0,1,3.93-8.06A81.12,81.12,0,0,1,111.37,107C115.28,102.61,125.17,93,130.14,89.92Z"/><circle class="cls-4" cx="104.93" cy="77.83" r="13.3"/><path class="cls-4" d="M140.06,6.53S12.71,47.36,68.21,156.93c0,0,13,35.22,81.39,78.95,0,0,8.22,6.67,2.82,12.35,0,0-5.55,5.31-11.88,1.34,0,0-61.79-29.09-92.48-78.76C21.58,128,32.38,72.63,71.19,40.52,87.09,27.37,109.39,14.39,140.06,6.53Z"/><path class="cls-1" d="M25.05,272.54a27.29,27.29,0,0,0-7.12,11.25,17.18,17.18,0,0,0,1.46,13c3.31,6.41,10.77,13.32,24.51,20.5,0,0-59.24-14.72-33.88-50.35a46.51,46.51,0,0,1,6.15-7,58.07,58.07,0,0,1,9-6.84C38.83,244.54,33.68,263.79,25.05,272.54Z"/><path class="cls-3" d="M173.86,212.74V103.26H174l56.92,80.59-7.26-1.6,56.63-79h.29V212.74H263.74V141.45l1,8.57-38.19,54.16h-.29L187.37,150l2.9-7.84v70.56Z"/><path class="cls-3" d="M309.34,212.74l46.9-110.06h1L404,212.74H384.7l-33.11-83.63,12.2-8L326,212.74ZM339,173.54h36l5.81,14.23h-47Z"/><path class="cls-3" d="M449.75,178.33,410.69,107h20.76L461.22,164l-5.23.29L485.47,107h20.76l-39.64,71.29v34.41H449.75Z"/><path class="cls-3" d="M535,107h64.18V123.3H552v29.77H593.2v16.26H552v43.41H535Z"/><path class="cls-3" d="M611.93,212.74l46.9-110.06h1L706.6,212.74H687.29l-33.1-83.63,12.19-8-37.75,91.62Zm29.62-39.2h36l5.81,14.23h-47Z"/><path class="cls-3" d="M735.5,107h17v105.7h-17Z"/><path class="cls-3" d="M822.33,107a51.54,51.54,0,0,1,15.9,2.32A36.75,36.75,0,0,1,850.57,116a28.44,28.44,0,0,1,7.91,10.52A35.69,35.69,0,0,1,861.24,141a42.87,42.87,0,0,1-1.89,12.49,31.62,31.62,0,0,1-6.17,11.33A30.31,30.31,0,0,1,841.93,173q-7,3-17.14,3H809.4v36.73h-17V107Zm2.17,52.56a22.18,22.18,0,0,0,9.3-1.74,15.89,15.89,0,0,0,6-4.5,17.8,17.8,0,0,0,3.12-5.88,20.35,20.35,0,0,0,1-5.89,21.11,21.11,0,0,0-.88-5.73,19,19,0,0,0-3-6,15.68,15.68,0,0,0-5.74-4.72,20.52,20.52,0,0,0-9.14-1.81H809.4v36.3Zm18.3,10.31,27,42.83H850.06l-27.44-42.4Z"/><path class="cls-5" d="M173.51,254.16h6.72l11.5,32.54-1-.35,8.43-21.87,2.65,7.72-11.32,26.41Zm20.58,0h5.66l12.56,32.13-1.24-.24,11-31.89h6.14L211.42,298.5Z"/><path class="cls-5" d="M241.14,254h27.71v5.48h-22v13h19.63V278H246.86v13.15h22.81v5.48H241.14Z"/><path class="cls-5" d="M284,254h5.72v42.63H284Z"/><path class="cls-5" d="M339.77,293a10.6,10.6,0,0,1-2.47,1.51,27.41,27.41,0,0,1-3.51,1.32,32.45,32.45,0,0,1-3.92,1,22.72,22.72,0,0,1-3.83.35,25.59,25.59,0,0,1-9.26-1.59,20.81,20.81,0,0,1-7-4.42,19.06,19.06,0,0,1-4.45-6.67,22,22,0,0,1-1.53-8.25,24.85,24.85,0,0,1,1.74-9.61,21,21,0,0,1,4.75-7.11,20.29,20.29,0,0,1,7-4.42,23.52,23.52,0,0,1,8.35-1.5,27.17,27.17,0,0,1,6.95.85,22.83,22.83,0,0,1,5.6,2.27l-1.88,5.25a25.15,25.15,0,0,0-3-1.27,28.55,28.55,0,0,0-3.57-1,16.87,16.87,0,0,0-3.36-.38,19.26,19.26,0,0,0-6.87,1.15,15,15,0,0,0-5.24,3.3,14.26,14.26,0,0,0-3.39,5.19,18.57,18.57,0,0,0-1.18,6.81,16.71,16.71,0,0,0,1.18,6.34,14,14,0,0,0,3.39,5,15.17,15.17,0,0,0,5.21,3.21,19.1,19.1,0,0,0,6.72,1.12,22.66,22.66,0,0,0,4.25-.41,11.29,11.29,0,0,0,3.6-1.3v-8.37h-8.43v-5.54h14.2Z"/><path class="cls-5" d="M388.83,254v42.63h-5.72V277.92H360.82v18.69H355.1V254h5.72v18.46h22.29V254Z"/><path class="cls-5" d="M402.33,254h28.36v5.48H419.25v37.15h-5.72V259.46h-11.2Z"/><path class="cls-5" d="M462.82,254h5.72v37.15h21.63v5.48H462.82Z"/><path class="cls-5" d="M500.49,275.32a21.21,21.21,0,0,1,1.68-8.37,22.39,22.39,0,0,1,4.69-7,22,22,0,0,1,6.93-4.75,21.56,21.56,0,0,1,16.83,0A22.51,22.51,0,0,1,542.35,267a21.63,21.63,0,0,1,0,16.86,21.83,21.83,0,0,1-4.71,6.93,22.1,22.1,0,0,1-7,4.66,21.29,21.29,0,0,1-8.43,1.68,21.52,21.52,0,0,1-21.76-21.76Zm5.9,0a16.31,16.31,0,0,0,1.21,6.34,15.71,15.71,0,0,0,3.42,5.16,16.3,16.3,0,0,0,5.07,3.51,15.87,15.87,0,0,0,12.44,0,15.94,15.94,0,0,0,5-3.48,16.34,16.34,0,0,0,3.39-5.16,16.8,16.8,0,0,0,0-12.67,17.09,17.09,0,0,0-3.39-5.22,15.35,15.35,0,0,0-5.07-3.54,15.55,15.55,0,0,0-6.22-1.27,15.38,15.38,0,0,0-6.28,1.3,16,16,0,0,0-5.07,3.54,15.8,15.8,0,0,0-3.33,5.22A16.76,16.76,0,0,0,506.39,275.32Z"/><path class="cls-5" d="M580.15,261.59a31,31,0,0,0-4.78-1.95,16.67,16.67,0,0,0-5.07-.82,8.6,8.6,0,0,0-5.45,1.59,5.1,5.1,0,0,0-2,4.24,4.73,4.73,0,0,0,1.33,3.39,11.42,11.42,0,0,0,3.42,2.39c1.39.67,2.88,1.3,4.45,1.89A36.24,36.24,0,0,1,575.9,274a15.32,15.32,0,0,1,3.51,2.39,10.22,10.22,0,0,1,2.48,3.47,12.53,12.53,0,0,1,.91,5.07,11.49,11.49,0,0,1-6.49,10.56,16.29,16.29,0,0,1-7.48,1.59,23.17,23.17,0,0,1-10.08-2.3,34.8,34.8,0,0,1-3.9-2.18l2.54-4.48a23.28,23.28,0,0,0,3.24,1.91,19.87,19.87,0,0,0,3.83,1.45,15.42,15.42,0,0,0,3.9.53,11.63,11.63,0,0,0,4-.71,7.58,7.58,0,0,0,3.25-2.24A6.11,6.11,0,0,0,576.9,285a5.64,5.64,0,0,0-1.15-3.59,9.7,9.7,0,0,0-3-2.51,32,32,0,0,0-4-1.86,41.79,41.79,0,0,1-4.1-1.65,20.19,20.19,0,0,1-3.77-2.27,10.5,10.5,0,0,1-2.83-3.27,9.48,9.48,0,0,1-1.09-4.71,10.55,10.55,0,0,1,1.62-5.87,11.24,11.24,0,0,1,4.45-3.95,15.25,15.25,0,0,1,6.49-1.56,24,24,0,0,1,7.28,1,27.23,27.23,0,0,1,5.57,2.42Z"/><path class="cls-5" d="M618.88,261.59a30.44,30.44,0,0,0-4.77-1.95,16.67,16.67,0,0,0-5.07-.82,8.63,8.63,0,0,0-5.46,1.59,5.12,5.12,0,0,0-2,4.24,4.72,4.72,0,0,0,1.32,3.39,11.69,11.69,0,0,0,3.42,2.39c1.4.67,2.88,1.3,4.46,1.89a37.13,37.13,0,0,1,3.89,1.68,15.47,15.47,0,0,1,3.5,2.39,10.08,10.08,0,0,1,2.48,3.47,12.53,12.53,0,0,1,.91,5.07,11.5,11.5,0,0,1-6.48,10.56,16.36,16.36,0,0,1-7.49,1.59,23.26,23.26,0,0,1-10.08-2.3,34.61,34.61,0,0,1-3.89-2.18l2.53-4.48a24,24,0,0,0,3.25,1.91,19.39,19.39,0,0,0,3.83,1.45,15.29,15.29,0,0,0,3.89.53,11.73,11.73,0,0,0,4-.71,7.49,7.49,0,0,0,3.24-2.24,6.06,6.06,0,0,0,1.3-4.07,5.64,5.64,0,0,0-1.15-3.59,9.86,9.86,0,0,0-3-2.51,31.41,31.41,0,0,0-4-1.86,41.62,41.62,0,0,1-4.09-1.65,20,20,0,0,1-3.78-2.27,10.5,10.5,0,0,1-2.83-3.27,9.48,9.48,0,0,1-1.09-4.71,10.55,10.55,0,0,1,1.62-5.87,11.31,11.31,0,0,1,4.45-3.95,15.25,15.25,0,0,1,6.49-1.56,24,24,0,0,1,7.28,1,27.23,27.23,0,0,1,5.57,2.42Z"/><path class="cls-5" d="M689.92,293.42A23.6,23.6,0,0,1,687,295a21.18,21.18,0,0,1-4.28,1.47,23.78,23.78,0,0,1-14.27-1.18,20,20,0,0,1-11-11.47,22.88,22.88,0,0,1-1.48-8.22,24.76,24.76,0,0,1,1.54-8.82,20.28,20.28,0,0,1,11.11-11.64,21.35,21.35,0,0,1,8.46-1.65,22,22,0,0,1,7,1,26.56,26.56,0,0,1,5.36,2.39l-2.3,5.42a23.13,23.13,0,0,0-4.3-2.3,14.82,14.82,0,0,0-11.44.18,15.29,15.29,0,0,0-4.89,3.48,16.63,16.63,0,0,0-4.54,11.61,18.38,18.38,0,0,0,1.09,6.4,15.44,15.44,0,0,0,3.12,5.19,14.34,14.34,0,0,0,4.93,3.45,16.38,16.38,0,0,0,6.48,1.24,15.56,15.56,0,0,0,5.78-1,17.57,17.57,0,0,0,4.19-2.24Z"/><path class="cls-5" d="M704,254h5.72v37.15h21.63v5.48H704Z"/><path class="cls-5" d="M745.05,254h5.72v42.63h-5.72Z"/><path class="cls-5" d="M804.36,298l-33-33.42,1.65.41.12,31.66h-5.72V252.68h.3l32.54,33.55-1.29-.29-.12-32h5.72v44Z"/><path class="cls-5" d="M821.22,254h5.72v42.63h-5.72Z"/><path class="cls-5" d="M874.93,293.42a23.6,23.6,0,0,1-2.88,1.6,21.18,21.18,0,0,1-4.28,1.47,23.78,23.78,0,0,1-14.27-1.18,20,20,0,0,1-11-11.47,22.88,22.88,0,0,1-1.48-8.22,24.76,24.76,0,0,1,1.54-8.82,20.28,20.28,0,0,1,11.11-11.64,21.35,21.35,0,0,1,8.46-1.65,22,22,0,0,1,7,1,26.56,26.56,0,0,1,5.36,2.39l-2.3,5.42a23.13,23.13,0,0,0-4.3-2.3,14.82,14.82,0,0,0-11.44.18,15.29,15.29,0,0,0-4.89,3.48,16.37,16.37,0,0,0-3.33,5.19,16.68,16.68,0,0,0-1.21,6.42,18.38,18.38,0,0,0,1.09,6.4,15.44,15.44,0,0,0,3.12,5.19,14.34,14.34,0,0,0,4.93,3.45,16.38,16.38,0,0,0,6.48,1.24,15.6,15.6,0,0,0,5.78-1,17.57,17.57,0,0,0,4.19-2.24Z"/></svg>